<?xml version="1.0" encoding="UTF-8" standalone="no"?>
<!-- Created with Inkscape (http://www.inkscape.org/) -->

<svg
   xmlns:dc="http://purl.org/dc/elements/1.1/"
   xmlns:cc="http://creativecommons.org/ns#"
   xmlns:rdf="http://www.w3.org/1999/02/22-rdf-syntax-ns#"
   xmlns:svg="http://www.w3.org/2000/svg"
   xmlns="http://www.w3.org/2000/svg"
   xmlns:sodipodi="http://sodipodi.sourceforge.net/DTD/sodipodi-0.dtd"
   xmlns:inkscape="http://www.inkscape.org/namespaces/inkscape"
   version="1.1"
   id="svg2"
   xml:space="preserve"
   width="332.61453"
   height="92.176369"
   viewBox="0 0 332.61453 92.17637"
   sodipodi:docname="lattice.svg"
   inkscape:version="0.92.4 (5da689c313, 2019-01-14)"><metadata
     id="metadata8"><rdf:RDF><cc:Work
         rdf:about=""><dc:format>image/svg+xml</dc:format><dc:type
           rdf:resource="http://purl.org/dc/dcmitype/StillImage" /><dc:title /></cc:Work></rdf:RDF></metadata><defs
     id="defs6"><clipPath
       clipPathUnits="userSpaceOnUse"
       id="clipPath144"><path
         d="M 0,0 H 120 V 120 H 0 Z"
         id="path142"
         inkscape:connector-curvature="0" /></clipPath><clipPath
       clipPathUnits="userSpaceOnUse"
       id="clipPath208"><path
         d="M 0,0 H 121 V 123 H 0 Z"
         id="path206"
         inkscape:connector-curvature="0" /></clipPath><clipPath
       clipPathUnits="userSpaceOnUse"
       id="clipPath274"><path
         d="M 0,0 H 121 V 122 H 0 Z"
         id="path272"
         inkscape:connector-curvature="0" /></clipPath></defs><sodipodi:namedview
     pagecolor="#ffffff"
     bordercolor="#666666"
     borderopacity="1"
     objecttolerance="10"
     gridtolerance="10"
     guidetolerance="10"
     inkscape:pageopacity="0"
     inkscape:pageshadow="2"
     inkscape:window-width="2560"
     inkscape:window-height="1027"
     id="namedview4"
     showgrid="false"
     inkscape:snap-global="false"
     inkscape:zoom="1.8397052"
     inkscape:cx="176.09412"
     inkscape:cy="64.802036"
     inkscape:window-x="-8"
     inkscape:window-y="-8"
     inkscape:window-maximized="1"
     inkscape:current-layer="g10" /><g
     id="g10"
     inkscape:groupmode="layer"
     inkscape:label="TFY4235_FY8904_ Computational Physics (spring 2019) Assignment 1 – Percolation"
     transform="matrix(1.3333333,0,0,-1.3333333,-75.929351,193.46036)"><g
       id="g6286"
       transform="translate(41.799015)"><g
         id="g134"
         transform="matrix(0.56836,0,0,0.56836,15.148,75.963)"><g
           id="g136"><g
             id="g138"><g
               id="g140"
               clip-path="url(#clipPath144)"><g
                 id="g146"
                 transform="scale(0.1)"><path
                   d="M 200,0 V 1200"
                   style="fill:none;stroke:#000000;stroke-width:8;stroke-linecap:butt;stroke-linejoin:miter;stroke-miterlimit:4;stroke-dasharray:none;stroke-opacity:1"
                   id="path148"
                   inkscape:connector-curvature="0" /><path
                   d="M 1000,1200 V 0"
                   style="fill:none;stroke:#000000;stroke-width:8;stroke-linecap:butt;stroke-linejoin:miter;stroke-miterlimit:4;stroke-dasharray:none;stroke-opacity:1"
                   id="path150"
                   inkscape:connector-curvature="0" /><path
                   d="M 600,0 V 1200"
                   style="fill:none;stroke:#000000;stroke-width:8;stroke-linecap:butt;stroke-linejoin:miter;stroke-miterlimit:4;stroke-dasharray:none;stroke-opacity:1"
                   id="path152"
                   inkscape:connector-curvature="0" /><path
                   d="M 0,1000 H 1200"
                   style="fill:none;stroke:#000000;stroke-width:8;stroke-linecap:butt;stroke-linejoin:miter;stroke-miterlimit:4;stroke-dasharray:none;stroke-opacity:1"
                   id="path154"
                   inkscape:connector-curvature="0" /><path
                   d="M 0,600 H 1200"
                   style="fill:none;stroke:#000000;stroke-width:8;stroke-linecap:butt;stroke-linejoin:miter;stroke-miterlimit:4;stroke-dasharray:none;stroke-opacity:1"
                   id="path156"
                   inkscape:connector-curvature="0" /><path
                   d="M 0,197.148 H 1200"
                   style="fill:none;stroke:#000000;stroke-width:8;stroke-linecap:butt;stroke-linejoin:miter;stroke-miterlimit:4;stroke-dasharray:none;stroke-opacity:1"
                   id="path158"
                   inkscape:connector-curvature="0" /><path
                   d="m 239.41,1000 c 0,-22.109 -17.89,-40 -40,-40 -22.07,0 -40,17.891 -40,40 0,22.11 17.93,40 40,40 22.11,0 40,-17.89 40,-40"
                   style="fill:#ff0000;fill-opacity:1;fill-rule:evenodd;stroke:none"
                   id="path160"
                   inkscape:connector-curvature="0" /><path
                   d="m 239.41,1000 c 0,-22.109 -17.89,-40 -40,-40 -22.07,0 -40,17.891 -40,40 0,22.11 17.93,40 40,40 22.11,0 40,-17.89 40,-40 z"
                   style="fill:none;stroke:#000000;stroke-width:8;stroke-linecap:butt;stroke-linejoin:miter;stroke-miterlimit:4;stroke-dasharray:none;stroke-opacity:1"
                   id="path162"
                   inkscape:connector-curvature="0" /><path
                   d="m 640,1000 c 0,-22.109 -17.891,-40 -40,-40 -22.109,0 -40,17.891 -40,40 0,22.11 17.891,40 40,40 22.109,0 40,-17.89 40,-40"
                   style="fill:#ff0000;fill-opacity:1;fill-rule:evenodd;stroke:none"
                   id="path164"
                   inkscape:connector-curvature="0" /><path
                   d="m 640,1000 c 0,-22.109 -17.891,-40 -40,-40 -22.109,0 -40,17.891 -40,40 0,22.11 17.891,40 40,40 22.109,0 40,-17.89 40,-40 z"
                   style="fill:none;stroke:#000000;stroke-width:8;stroke-linecap:butt;stroke-linejoin:miter;stroke-miterlimit:4;stroke-dasharray:none;stroke-opacity:1"
                   id="path166"
                   inkscape:connector-curvature="0" /><path
                   d="m 1039.41,1000 c 0,-22.109 -17.89,-40 -40,-40 -22.07,0 -40,17.891 -40,40 0,22.11 17.93,40 40,40 22.11,0 40,-17.89 40,-40"
                   style="fill:#ff0000;fill-opacity:1;fill-rule:evenodd;stroke:none"
                   id="path168"
                   inkscape:connector-curvature="0" /><path
                   d="m 1039.41,1000 c 0,-22.109 -17.89,-40 -40,-40 -22.07,0 -40,17.891 -40,40 0,22.11 17.93,40 40,40 22.11,0 40,-17.89 40,-40 z"
                   style="fill:none;stroke:#000000;stroke-width:8;stroke-linecap:butt;stroke-linejoin:miter;stroke-miterlimit:4;stroke-dasharray:none;stroke-opacity:1"
                   id="path170"
                   inkscape:connector-curvature="0" /><path
                   d="m 240,600 c 0,-22.109 -17.891,-40 -40,-40 -22.109,0 -40,17.891 -40,40 0,22.109 17.891,40 40,40 22.109,0 40,-17.891 40,-40"
                   style="fill:#ff0000;fill-opacity:1;fill-rule:evenodd;stroke:none"
                   id="path172"
                   inkscape:connector-curvature="0" /><path
                   d="m 240,600 c 0,-22.109 -17.891,-40 -40,-40 -22.109,0 -40,17.891 -40,40 0,22.109 17.891,40 40,40 22.109,0 40,-17.891 40,-40 z"
                   style="fill:none;stroke:#000000;stroke-width:8;stroke-linecap:butt;stroke-linejoin:miter;stroke-miterlimit:4;stroke-dasharray:none;stroke-opacity:1"
                   id="path174"
                   inkscape:connector-curvature="0" /><path
                   d="m 640,600 c 0,-22.109 -17.891,-40 -40,-40 -22.109,0 -40,17.891 -40,40 0,22.109 17.891,40 40,40 22.109,0 40,-17.891 40,-40"
                   style="fill:#ff0000;fill-opacity:1;fill-rule:evenodd;stroke:none"
                   id="path176"
                   inkscape:connector-curvature="0" /><path
                   d="m 640,600 c 0,-22.109 -17.891,-40 -40,-40 -22.109,0 -40,17.891 -40,40 0,22.109 17.891,40 40,40 22.109,0 40,-17.891 40,-40 z"
                   style="fill:none;stroke:#000000;stroke-width:8;stroke-linecap:butt;stroke-linejoin:miter;stroke-miterlimit:4;stroke-dasharray:none;stroke-opacity:1"
                   id="path178"
                   inkscape:connector-curvature="0" /><path
                   d="m 1040,600 c 0,-22.109 -17.89,-40 -40,-40 -22.109,0 -40,17.891 -40,40 0,22.109 17.891,40 40,40 22.11,0 40,-17.891 40,-40"
                   style="fill:#ff0000;fill-opacity:1;fill-rule:evenodd;stroke:none"
                   id="path180"
                   inkscape:connector-curvature="0" /><path
                   d="m 1040,600 c 0,-22.109 -17.89,-40 -40,-40 -22.109,0 -40,17.891 -40,40 0,22.109 17.891,40 40,40 22.11,0 40,-17.891 40,-40 z"
                   style="fill:none;stroke:#000000;stroke-width:8;stroke-linecap:butt;stroke-linejoin:miter;stroke-miterlimit:4;stroke-dasharray:none;stroke-opacity:1"
                   id="path182"
                   inkscape:connector-curvature="0" /><path
                   d="m 240,197.148 c 0,-22.109 -17.891,-40 -40,-40 -22.109,0 -40,17.891 -40,40 0,22.071 17.891,40 40,40 22.109,0 40,-17.929 40,-40"
                   style="fill:#ff0000;fill-opacity:1;fill-rule:evenodd;stroke:none"
                   id="path184"
                   inkscape:connector-curvature="0" /><path
                   d="m 240,197.148 c 0,-22.109 -17.891,-40 -40,-40 -22.109,0 -40,17.891 -40,40 0,22.071 17.891,40 40,40 22.109,0 40,-17.929 40,-40 z"
                   style="fill:none;stroke:#000000;stroke-width:8;stroke-linecap:butt;stroke-linejoin:miter;stroke-miterlimit:4;stroke-dasharray:none;stroke-opacity:1"
                   id="path186"
                   inkscape:connector-curvature="0" /><path
                   d="m 640,197.148 c 0,-22.109 -17.891,-40 -40,-40 -22.109,0 -40,17.891 -40,40 0,22.071 17.891,40 40,40 22.109,0 40,-17.929 40,-40"
                   style="fill:#ff0000;fill-opacity:1;fill-rule:evenodd;stroke:none"
                   id="path188"
                   inkscape:connector-curvature="0" /><path
                   d="m 640,197.148 c 0,-22.109 -17.891,-40 -40,-40 -22.109,0 -40,17.891 -40,40 0,22.071 17.891,40 40,40 22.109,0 40,-17.929 40,-40 z"
                   style="fill:none;stroke:#000000;stroke-width:8;stroke-linecap:butt;stroke-linejoin:miter;stroke-miterlimit:4;stroke-dasharray:none;stroke-opacity:1"
                   id="path190"
                   inkscape:connector-curvature="0" /><path
                   d="m 1040,197.148 c 0,-22.109 -17.89,-40 -40,-40 -22.109,0 -40,17.891 -40,40 0,22.071 17.891,40 40,40 22.11,0 40,-17.929 40,-40"
                   style="fill:#ff0000;fill-opacity:1;fill-rule:evenodd;stroke:none"
                   id="path192"
                   inkscape:connector-curvature="0" /><path
                   d="m 1040,197.148 c 0,-22.109 -17.89,-40 -40,-40 -22.109,0 -40,17.891 -40,40 0,22.071 17.891,40 40,40 22.11,0 40,-17.929 40,-40 z"
                   style="fill:none;stroke:#000000;stroke-width:8;stroke-linecap:butt;stroke-linejoin:miter;stroke-miterlimit:4;stroke-dasharray:none;stroke-opacity:1"
                   id="path194"
                   inkscape:connector-curvature="0" /></g></g></g></g></g><rect
         transform="scale(1,-1)"
         y="-121.9883"
         x="37.856918"
         height="22.657984"
         width="22.802118"
         id="rect6134"
         style="fill:none;fill-opacity:1;stroke:#000fff;stroke-width:0.75;stroke-miterlimit:4;stroke-dasharray:2.25000006, 0.75000002;stroke-dashoffset:0;stroke-opacity:1" /></g><g
       id="g6319"><g
         transform="matrix(0.56364,0,0,0.56364,147.316,75.963)"
         id="g198"><g
           id="g200"><g
             id="g202"><g
               clip-path="url(#clipPath208)"
               id="g204"><g
                 transform="scale(0.1)"
                 id="g210"><path
                   inkscape:connector-curvature="0"
                   id="path212"
                   style="fill:none;stroke:#000000;stroke-width:8;stroke-linecap:butt;stroke-linejoin:miter;stroke-miterlimit:4;stroke-dasharray:none;stroke-opacity:1"
                   d="M 3.51953,318.262 H 1203.52" /><path
                   inkscape:connector-curvature="0"
                   id="path214"
                   style="fill:none;stroke:#000000;stroke-width:8;stroke-linecap:butt;stroke-linejoin:miter;stroke-miterlimit:4;stroke-dasharray:none;stroke-opacity:1"
                   d="M 1203.52,618.262 H 3.51953" /><path
                   inkscape:connector-curvature="0"
                   id="path216"
                   style="fill:none;stroke:#000000;stroke-width:8;stroke-linecap:butt;stroke-linejoin:miter;stroke-miterlimit:4;stroke-dasharray:none;stroke-opacity:1"
                   d="M 3.51953,918.262 H 1203.52" /><path
                   inkscape:connector-curvature="0"
                   id="path218"
                   style="fill:none;stroke:#000000;stroke-width:8;stroke-linecap:butt;stroke-linejoin:miter;stroke-miterlimit:4;stroke-dasharray:none;stroke-opacity:1"
                   d="m 3.51953,618.262 171.40247,300 177.148,-300 168.551,300 168.598,-300 182.851,300 168.55,-300 162.9,300" /><path
                   inkscape:connector-curvature="0"
                   id="path220"
                   style="fill:none;stroke:#000000;stroke-width:8;stroke-linecap:butt;stroke-linejoin:miter;stroke-miterlimit:4;stroke-dasharray:none;stroke-opacity:1"
                   d="M 3.51953,1218.26 174.922,918.262 352.07,1218.26 520.621,918.262 689.219,1218.26 872.07,918.262 l 168.55,299.998 162.9,-299.998" /><path
                   inkscape:connector-curvature="0"
                   id="path222"
                   style="fill:none;stroke:#000000;stroke-width:8;stroke-linecap:butt;stroke-linejoin:miter;stroke-miterlimit:4;stroke-dasharray:none;stroke-opacity:1"
                   d="m 1203.52,318.262 -162.9,300 -168.55,-300 -182.851,300 -168.598,-300 -168.551,300 -177.148,-300 -171.40247,300" /><path
                   inkscape:connector-curvature="0"
                   id="path224"
                   style="fill:none;stroke:#000000;stroke-width:8;stroke-linecap:butt;stroke-linejoin:miter;stroke-miterlimit:4;stroke-dasharray:none;stroke-opacity:1"
                   d="M 3.51953,18.2617 174.922,318.262 352.07,18.2617 520.621,318.262 689.219,18.2617 872.07,318.262 1040.62,18.2617 1203.52,318.262" /><path
                   inkscape:connector-curvature="0"
                   id="path226"
                   style="fill:#ff0000;fill-opacity:1;fill-rule:evenodd;stroke:none"
                   d="m 214.922,918.262 c 0,-22.114 -17.891,-40 -40,-40 -22.07,0 -40,17.886 -40,40 0,22.066 17.93,40 40,40 22.109,0 40,-17.934 40,-40" /><path
                   inkscape:connector-curvature="0"
                   id="path228"
                   style="fill:none;stroke:#000000;stroke-width:8;stroke-linecap:butt;stroke-linejoin:miter;stroke-miterlimit:4;stroke-dasharray:none;stroke-opacity:1"
                   d="m 214.922,918.262 c 0,-22.114 -17.891,-40 -40,-40 -22.07,0 -40,17.886 -40,40 0,22.066 17.93,40 40,40 22.109,0 40,-17.934 40,-40 z" /><path
                   inkscape:connector-curvature="0"
                   id="path230"
                   style="fill:#ff0000;fill-opacity:1;fill-rule:evenodd;stroke:none"
                   d="m 560.621,918.262 c 0,-22.114 -17.891,-40 -40,-40 -22.07,0 -40,17.886 -40,40 0,22.066 17.93,40 40,40 22.109,0 40,-17.934 40,-40" /><path
                   inkscape:connector-curvature="0"
                   id="path232"
                   style="fill:none;stroke:#000000;stroke-width:8;stroke-linecap:butt;stroke-linejoin:miter;stroke-miterlimit:4;stroke-dasharray:none;stroke-opacity:1"
                   d="m 560.621,918.262 c 0,-22.114 -17.891,-40 -40,-40 -22.07,0 -40,17.886 -40,40 0,22.066 17.93,40 40,40 22.109,0 40,-17.934 40,-40 z" /><path
                   inkscape:connector-curvature="0"
                   id="path234"
                   style="fill:#ff0000;fill-opacity:1;fill-rule:evenodd;stroke:none"
                   d="m 912.07,918.262 c 0,-22.114 -17.89,-40 -40,-40 -22.109,0 -40,17.886 -40,40 0,22.066 17.891,40 40,40 22.11,0 40,-17.934 40,-40" /><path
                   inkscape:connector-curvature="0"
                   id="path236"
                   style="fill:none;stroke:#000000;stroke-width:8;stroke-linecap:butt;stroke-linejoin:miter;stroke-miterlimit:4;stroke-dasharray:none;stroke-opacity:1"
                   d="m 912.07,918.262 c 0,-22.114 -17.89,-40 -40,-40 -22.109,0 -40,17.886 -40,40 0,22.066 17.891,40 40,40 22.11,0 40,-17.934 40,-40 z" /><path
                   inkscape:connector-curvature="0"
                   id="path238"
                   style="fill:#ff0000;fill-opacity:1;fill-rule:evenodd;stroke:none"
                   d="m 392.07,618.262 c 0,-22.114 -17.89,-40 -40,-40 -22.109,0 -40,17.886 -40,40 0,22.066 17.891,40 40,40 22.11,0 40,-17.934 40,-40" /><path
                   inkscape:connector-curvature="0"
                   id="path240"
                   style="fill:none;stroke:#000000;stroke-width:8;stroke-linecap:butt;stroke-linejoin:miter;stroke-miterlimit:4;stroke-dasharray:none;stroke-opacity:1"
                   d="m 392.07,618.262 c 0,-22.114 -17.89,-40 -40,-40 -22.109,0 -40,17.886 -40,40 0,22.066 17.891,40 40,40 22.11,0 40,-17.934 40,-40 z" /><path
                   inkscape:connector-curvature="0"
                   id="path242"
                   style="fill:#ff0000;fill-opacity:1;fill-rule:evenodd;stroke:none"
                   d="m 729.219,618.262 c 0,-22.114 -17.93,-40 -40,-40 -22.11,0 -40,17.886 -40,40 0,22.066 17.89,40 40,40 22.07,0 40,-17.934 40,-40" /><path
                   inkscape:connector-curvature="0"
                   id="path244"
                   style="fill:none;stroke:#000000;stroke-width:8;stroke-linecap:butt;stroke-linejoin:miter;stroke-miterlimit:4;stroke-dasharray:none;stroke-opacity:1"
                   d="m 729.219,618.262 c 0,-22.114 -17.93,-40 -40,-40 -22.11,0 -40,17.886 -40,40 0,22.066 17.89,40 40,40 22.07,0 40,-17.934 40,-40 z" /><path
                   inkscape:connector-curvature="0"
                   id="path246"
                   style="fill:#ff0000;fill-opacity:1;fill-rule:evenodd;stroke:none"
                   d="m 1080.62,618.262 c 0,-22.114 -17.89,-40 -40,-40 -22.07,0 -40,17.886 -40,40 0,22.066 17.93,40 40,40 22.11,0 40,-17.934 40,-40" /><path
                   inkscape:connector-curvature="0"
                   id="path248"
                   style="fill:none;stroke:#000000;stroke-width:8;stroke-linecap:butt;stroke-linejoin:miter;stroke-miterlimit:4;stroke-dasharray:none;stroke-opacity:1"
                   d="m 1080.62,618.262 c 0,-22.114 -17.89,-40 -40,-40 -22.07,0 -40,17.886 -40,40 0,22.066 17.93,40 40,40 22.11,0 40,-17.934 40,-40 z" /><path
                   inkscape:connector-curvature="0"
                   id="path250"
                   style="fill:#ff0000;fill-opacity:1;fill-rule:evenodd;stroke:none"
                   d="m 912.07,318.262 c 0,-22.114 -17.89,-40 -40,-40 -22.109,0 -40,17.886 -40,40 0,22.066 17.891,40 40,40 22.11,0 40,-17.934 40,-40" /><path
                   inkscape:connector-curvature="0"
                   id="path252"
                   style="fill:none;stroke:#000000;stroke-width:8;stroke-linecap:butt;stroke-linejoin:miter;stroke-miterlimit:4;stroke-dasharray:none;stroke-opacity:1"
                   d="m 912.07,318.262 c 0,-22.114 -17.89,-40 -40,-40 -22.109,0 -40,17.886 -40,40 0,22.066 17.891,40 40,40 22.11,0 40,-17.934 40,-40 z" /><path
                   inkscape:connector-curvature="0"
                   id="path254"
                   style="fill:#ff0000;fill-opacity:1;fill-rule:evenodd;stroke:none"
                   d="m 560.621,318.262 c 0,-22.114 -17.891,-40 -40,-40 -22.07,0 -40,17.886 -40,40 0,22.066 17.93,40 40,40 22.109,0 40,-17.934 40,-40" /><path
                   inkscape:connector-curvature="0"
                   id="path256"
                   style="fill:none;stroke:#000000;stroke-width:8;stroke-linecap:butt;stroke-linejoin:miter;stroke-miterlimit:4;stroke-dasharray:none;stroke-opacity:1"
                   d="m 560.621,318.262 c 0,-22.114 -17.891,-40 -40,-40 -22.07,0 -40,17.886 -40,40 0,22.066 17.93,40 40,40 22.109,0 40,-17.934 40,-40 z" /><path
                   inkscape:connector-curvature="0"
                   id="path258"
                   style="fill:#ff0000;fill-opacity:1;fill-rule:evenodd;stroke:none"
                   d="m 214.922,318.262 c 0,-22.114 -17.891,-40 -40,-40 -22.07,0 -40,17.886 -40,40 0,22.066 17.93,40 40,40 22.109,0 40,-17.934 40,-40" /><path
                   inkscape:connector-curvature="0"
                   id="path260"
                   style="fill:none;stroke:#000000;stroke-width:8;stroke-linecap:butt;stroke-linejoin:miter;stroke-miterlimit:4;stroke-dasharray:none;stroke-opacity:1"
                   d="m 214.922,318.262 c 0,-22.114 -17.891,-40 -40,-40 -22.07,0 -40,17.886 -40,40 0,22.066 17.93,40 40,40 22.109,0 40,-17.934 40,-40 z" /></g></g></g></g></g><rect
         transform="scale(1,-1)"
         y="-119.02225"
         x="157.66821"
         height="16.932989"
         width="19.115494"
         id="rect6134-1"
         style="fill:none;fill-opacity:1;stroke:#000fff;stroke-width:0.75;stroke-miterlimit:4;stroke-dasharray:2.25000006, 0.75000002;stroke-dashoffset:0;stroke-opacity:1" /></g><g
       id="g6345"
       transform="translate(-41.222477)"><g
         id="g264"
         transform="matrix(0.56364,0,0,0.56364,279.484,75.963)"><g
           id="g266"><g
             id="g268"><g
               id="g270"
               clip-path="url(#clipPath274)"><g
                 id="g276"
                 transform="scale(0.1)"><path
                   d="m 175.941,914.02 h 345.7 l 168.558,-300 -168.558,-300 h -345.7 l -171.45272,300 z"
                   style="fill:none;stroke:#000000;stroke-width:8;stroke-linecap:butt;stroke-linejoin:miter;stroke-miterlimit:4;stroke-dasharray:none;stroke-opacity:1"
                   id="path278"
                   inkscape:connector-curvature="0" /><path
                   d="m 1204.49,914.02 -162.85,-300 162.85,-300 L 1041.64,14.0195 H 690.199 L 521.641,314.02"
                   style="fill:none;stroke:#000000;stroke-width:8;stroke-linecap:butt;stroke-linejoin:miter;stroke-miterlimit:4;stroke-dasharray:none;stroke-opacity:1"
                   id="path280"
                   inkscape:connector-curvature="0" /><path
                   d="M 690.199,614.02 H 1041.64"
                   style="fill:none;stroke:#000000;stroke-width:8;stroke-linecap:butt;stroke-linejoin:miter;stroke-miterlimit:4;stroke-dasharray:none;stroke-opacity:1"
                   id="path282"
                   inkscape:connector-curvature="0" /><path
                   d="m 1204.49,914.02 -162.85,300 H 690.199 l -168.558,-300"
                   style="fill:none;stroke:#000000;stroke-width:8;stroke-linecap:butt;stroke-linejoin:miter;stroke-miterlimit:4;stroke-dasharray:none;stroke-opacity:1"
                   id="path284"
                   inkscape:connector-curvature="0" /><path
                   d="m 175.941,914.02 -171.45272,300"
                   style="fill:none;stroke:#000000;stroke-width:8;stroke-linecap:butt;stroke-linejoin:miter;stroke-miterlimit:4;stroke-dasharray:none;stroke-opacity:1"
                   id="path286"
                   inkscape:connector-curvature="0" /><path
                   d="M 175.941,314.02 4.48828,14.0195"
                   style="fill:none;stroke:#000000;stroke-width:8;stroke-linecap:butt;stroke-linejoin:miter;stroke-miterlimit:4;stroke-dasharray:none;stroke-opacity:1"
                   id="path288"
                   inkscape:connector-curvature="0" /><path
                   d="m 215.941,314.02 c 0,-22.11 -17.929,-40 -40,-40 -22.113,0 -40,17.89 -40,40 0,22.07 17.887,40 40,40 22.071,0 40,-17.93 40,-40"
                   style="fill:#ff0000;fill-opacity:1;fill-rule:evenodd;stroke:none"
                   id="path290"
                   inkscape:connector-curvature="0" /><path
                   d="m 215.941,314.02 c 0,-22.11 -17.929,-40 -40,-40 -22.113,0 -40,17.89 -40,40 0,22.07 17.887,40 40,40 22.071,0 40,-17.93 40,-40 z"
                   style="fill:none;stroke:#000000;stroke-width:8;stroke-linecap:butt;stroke-linejoin:miter;stroke-miterlimit:4;stroke-dasharray:none;stroke-opacity:1"
                   id="path292"
                   inkscape:connector-curvature="0" /><path
                   d="m 561.641,314.02 c 0,-22.11 -17.891,-40 -40,-40 -22.071,0 -40,17.89 -40,40 0,22.07 17.929,40 40,40 22.109,0 40,-17.93 40,-40"
                   style="fill:#ff0000;fill-opacity:1;fill-rule:evenodd;stroke:none"
                   id="path294"
                   inkscape:connector-curvature="0" /><path
                   d="m 561.641,314.02 c 0,-22.11 -17.891,-40 -40,-40 -22.071,0 -40,17.89 -40,40 0,22.07 17.929,40 40,40 22.109,0 40,-17.93 40,-40 z"
                   style="fill:none;stroke:#000000;stroke-width:8;stroke-linecap:butt;stroke-linejoin:miter;stroke-miterlimit:4;stroke-dasharray:none;stroke-opacity:1"
                   id="path296"
                   inkscape:connector-curvature="0" /><path
                   d="m 730.199,614.02 c 0,-22.11 -17.898,-40 -40,-40 -22.078,0 -40,17.89 -40,40 0,22.07 17.922,40 40,40 22.102,0 40,-17.93 40,-40"
                   style="fill:#ff0000;fill-opacity:1;fill-rule:evenodd;stroke:none"
                   id="path298"
                   inkscape:connector-curvature="0" /><path
                   d="m 730.199,614.02 c 0,-22.11 -17.898,-40 -40,-40 -22.078,0 -40,17.89 -40,40 0,22.07 17.922,40 40,40 22.102,0 40,-17.93 40,-40 z"
                   style="fill:none;stroke:#000000;stroke-width:8;stroke-linecap:butt;stroke-linejoin:miter;stroke-miterlimit:4;stroke-dasharray:none;stroke-opacity:1"
                   id="path300"
                   inkscape:connector-curvature="0" /><path
                   d="m 1081.64,614.02 c 0,-22.11 -17.89,-40 -40,-40 -22.07,0 -40,17.89 -40,40 0,22.07 17.93,40 40,40 22.11,0 40,-17.93 40,-40"
                   style="fill:#ff0000;fill-opacity:1;fill-rule:evenodd;stroke:none"
                   id="path302"
                   inkscape:connector-curvature="0" /><path
                   d="m 1081.64,614.02 c 0,-22.11 -17.89,-40 -40,-40 -22.07,0 -40,17.89 -40,40 0,22.07 17.93,40 40,40 22.11,0 40,-17.93 40,-40 z"
                   style="fill:none;stroke:#000000;stroke-width:8;stroke-linecap:butt;stroke-linejoin:miter;stroke-miterlimit:4;stroke-dasharray:none;stroke-opacity:1"
                   id="path304"
                   inkscape:connector-curvature="0" /><path
                   d="m 561.641,914.02 c 0,-22.11 -17.891,-40 -40,-40 -22.071,0 -40,17.89 -40,40 0,22.07 17.929,40 40,40 22.109,0 40,-17.93 40,-40"
                   style="fill:#ff0000;fill-opacity:1;fill-rule:evenodd;stroke:none"
                   id="path306"
                   inkscape:connector-curvature="0" /><path
                   d="m 561.641,914.02 c 0,-22.11 -17.891,-40 -40,-40 -22.071,0 -40,17.89 -40,40 0,22.07 17.929,40 40,40 22.109,0 40,-17.93 40,-40 z"
                   style="fill:none;stroke:#000000;stroke-width:8;stroke-linecap:butt;stroke-linejoin:miter;stroke-miterlimit:4;stroke-dasharray:none;stroke-opacity:1"
                   id="path308"
                   inkscape:connector-curvature="0" /><path
                   d="m 215.941,915.148 c 0,-22.109 -17.929,-40 -40,-40 -22.113,0 -40,17.891 -40,40 0,22.071 17.887,40 40,40 22.071,0 40,-17.929 40,-40"
                   style="fill:#ff0000;fill-opacity:1;fill-rule:evenodd;stroke:none"
                   id="path310"
                   inkscape:connector-curvature="0" /><path
                   d="m 215.941,915.148 c 0,-22.109 -17.929,-40 -40,-40 -22.113,0 -40,17.891 -40,40 0,22.071 17.887,40 40,40 22.071,0 40,-17.929 40,-40 z"
                   style="fill:none;stroke:#000000;stroke-width:8;stroke-linecap:butt;stroke-linejoin:miter;stroke-miterlimit:4;stroke-dasharray:none;stroke-opacity:1"
                   id="path312"
                   inkscape:connector-curvature="0" /></g></g></g></g></g><rect
         transform="scale(1,-1)"
         y="-135.92883"
         x="300.61978"
         height="34.612202"
         width="27.835634"
         id="rect6134-1-6-0"
         style="fill:none;fill-opacity:1;stroke:#000fff;stroke-width:0.75;stroke-miterlimit:4;stroke-dasharray:2.2500001, 0.75000003;stroke-dashoffset:0;stroke-opacity:1" /></g></g></svg>